<?xml version="1.0" encoding="UTF-8" standalone="no"?>
<svg width="200cm" height="200cm" viewBox="0 0 4000 4000" xmlns="http://www.w3.org/2000/svg">
<line x1="0" y1="0" x2="0" y2="0" stroke="red" stroke-width="20" />
<line x1="4000" y1="4000" x2="4000" y2="4000" stroke="red" stroke-width="20" />
<line x1="4000" y1="0" x2="4000" y2="0" stroke="red" stroke-width="20" />
<line x1="0" y1="0" x2="0" y2="0" stroke="red" stroke-width="20" />
<line x1="0" y1="3005.67" x2="2800" y2="3000" stroke="red" stroke-width="20" />
<line x1="0" y1="795.867" x2="2800" y2="2200" stroke="red" stroke-width="20" />
<circle cx="700" cy="3500" r="100" fill="red" />
<ellipse cx="3091.73" cy="693.464" rx="92.5986" ry="92.5986" fill="red" />
<polyline fill="none" stroke="blue" stroke-width="15" points="800,3500 820,3480 840,3460 860,3440 880,3420 900,3400 920,3380 940,3360 960,3340 980,3320 1000,3300 1020,3280 1040,3260 1060,3240 1080,3220 1100,3200 1120,3180 1140,3160 1160,3140 1180,3120 1200,3100 1220,3080 1240,3080 1260,3060 1280,3060 1300,3060 1320,3060 1340,3060 1360,3060 1380,3060 1400,3060 1420,3060 1440,3060 1460,3060 1480,3060 1500,3060 1520,3060 1540,3060 1560,3060 1580,3060 1600,3060 1620,3060 1640,3060 1660,3060 1680,3060 1700,3060 1720,3060 1740,3060 1760,3060 1780,3060 1800,3060 1820,3060 1840,3060 1860,3060 1880,3060 1900,3040 1920,3040 1940,3040 1960,3040 1980,3040 2000,3040 2020,3040 2040,3040 2060,3040 2080,3040 2100,3040 2120,3040 2140,3040 2160,3040 2180,3040 2200,3040 2220,3040 2240,3040 2260,3040 2280,3040 2300,3040 2320,3040 2340,3040 2360,3040 2380,3040 2400,3040 2420,3040 2440,3040 2460,3040 2480,3040 2500,3040 2520,3040 2540,3040 2560,3040 2580,3040 2600,3040 2620,3040 2640,3040 2660,3040 2680,3040 2700,3040 2720,3040 2740,3040 2760,3040 2780,3040 2800,3040 2820,3020 2840,3000 2840,2980 2840,2960 2840,2940 2840,2920 2840,2900 2840,2880 2840,2860 2840,2840 2840,2820 2840,2800 2840,2780 2840,2760 2840,2740 2840,2720 2840,2700 2840,2680 2840,2660 2840,2640 2840,2620 2840,2600 2840,2580 2840,2560 2840,2540 2840,2520 2840,2500 2840,2480 2840,2460 2840,2440 2840,2420 2840,2400 2840,2380 2840,2360 2840,2340 2840,2320 2840,2300 2840,2280 2840,2260 2840,2240 2840,2220 2840,2200 2840,2180 2840,2160 2840,2140 2840,2120 2840,2100 2840,2080 2840,2060 2840,2040 2840,2020 2840,2000 2840,1980 2840,1960 2840,1940 2840,1920 2840,1900 2840,1880 2840,1860 2840,1840 2840,1820 2840,1800 2840,1780 2840,1760 2840,1740 2840,1720 2840,1700 2840,1680 2840,1660 2840,1640 2840,1620 2840,1600 2840,1580 2840,1560 2840,1540 2840,1520 2840,1500 2840,1480 2840,1460 2860,1440 2860,1420 2880,1400 2880,1380 2880,1360 2900,1340 2900,1320 2920,1300 2920,1280 2940,1260 2940,1240 2960,1220 2960,1200 2980,1180 2980,1160 2980,1140 3000,1120 3000,1100 3020,1080 3040,1060 3040,1040 3040,1020 3060,1000 3060,980 3060,960 3080,940 3080,920 3100,900 3100,880 3120,860 3120,840 3140,820 3140,800 3160,780 3160,760 3180,740 3180,720 " />
</svg>
